<svg width="200" height="200" viewBox="0 0 200 200" fill="none" xmlns="http://www.w3.org/2000/svg">
  <!-- Background circle -->
  <circle cx="100" cy="100" r="80" fill="#F0F4FF" stroke="#E1E8FF" stroke-width="2"/>
  
  <!-- Document/Form -->
  <rect x="70" y="50" width="60" height="80" rx="4" fill="white" stroke="#4F46E5" stroke-width="2"/>
  
  <!-- Form lines -->
  <rect x="80" y="65" width="40" height="2" rx="1" fill="#E5E7EB"/>
  <rect x="80" y="75" width="35" height="2" rx="1" fill="#E5E7EB"/>
  <rect x="80" y="85" width="30" height="2" rx="1" fill="#E5E7EB"/>
  <rect x="80" y="95" width="25" height="2" rx="1" fill="#E5E7EB"/>
  <rect x="80" y="105" width="20" height="2" rx="1" fill="#E5E7EB"/>
  
  <!-- User icon -->
  <circle cx="100" cy="130" r="12" fill="#4F46E5"/>
  <circle cx="100" cy="125" r="5" fill="white"/>
  <path d="M90 140 C90 135 95 130 100 130 C105 130 110 135 110 140" fill="white"/>
  
  <!-- Plus sign for registration -->
  <circle cx="130" cy="70" r="8" fill="#10B981"/>
  <path d="M126 70 L134 70" stroke="white" stroke-width="2" stroke-linecap="round"/>
  <path d="M130 66 L130 74" stroke="white" stroke-width="2" stroke-linecap="round"/>
  
  <!-- Decorative elements -->
  <circle cx="60" cy="60" r="3" fill="#A5B4FC" opacity="0.6"/>
  <circle cx="140" cy="80" r="2" fill="#A5B4FC" opacity="0.6"/>
  <circle cx="70" cy="140" r="2" fill="#A5B4FC" opacity="0.6"/>
  <circle cx="130" cy="140" r="3" fill="#A5B4FC" opacity="0.6"/>
</svg>
