<svg width="20" height="20" viewBox="0 0 20 20" fill="none" xmlns="http://www.w3.org/2000/svg">
  <path d="M19.6 10.227c0-.709-.064-1.39-.182-2.045H10v3.868h5.382c-.1.5-.227.955-.386 1.364 0 0 1.182 3.636 5.182 3.636 1.545 0 2.955-.545 3.955-1.455 1.045-1.045 1.727-2.5 1.727-4.318z" fill="#4285F4"/>
  <path d="M10 20c2.7 0 4.964-.895 6.618-2.445l-3.182-2.727c-.895.6-2.045.955-3.436.955-2.636 0-4.864-1.773-5.659-4.155H1.364v2.818C3.045 17.773 6.364 20 10 20z" fill="#34A853"/>
  <path d="M4.341 11.432c-.2-.6-.318-1.227-.318-1.864s.118-1.264.318-1.864V4.886H1.364C.5 6.318 0 7.886 0 9.568s.5 3.25 1.364 4.682l2.977-2.818z" fill="#FBBC05"/>
  <path d="M10 3.977c1.488 0 2.818.509 3.864 1.477l2.864-2.864C14.955.955 12.7 0 10 0 6.364 0 3.045 2.227 1.364 5.432l2.977 2.818C5.136 5.659 7.364 3.977 10 3.977z" fill="#EA4335"/>
</svg>
